<svg width="32.000000" height="32.000000" viewBox="0 0 22 22" fill="none" xmlns="http://www.w3.org/2000/svg" xmlns:xlink="http://www.w3.org/1999/xlink">
	<desc>
			Created with Pixso.
	</desc>
	<defs>
		<clipPath id="clip1_234">
			<rect id="Plus" width="32.000000" height="32.000000" fill="white" fill-opacity="0"/>
		</clipPath>
	</defs>
	<rect id="Plus" width="22.000000" height="22.000000" fill="#FFFFFF" fill-opacity="0"/>
	<g clip-path="url(#clip1_234)">
		<path id="Vector" d="M19.25 11C19.25 11.18 19.17 11.35 19.04 11.48C18.91 11.61 18.74 11.68 18.56 11.68L11.68 11.68L11.68 18.56C11.68 18.74 11.61 18.91 11.48 19.04C11.35 19.17 11.18 19.25 11 19.25C10.81 19.25 10.64 19.17 10.51 19.04C10.38 18.91 10.31 18.74 10.31 18.56L10.31 11.68L3.43 11.68C3.25 11.68 3.08 11.61 2.95 11.48C2.82 11.35 2.75 11.18 2.75 11C2.75 10.81 2.82 10.64 2.95 10.51C3.08 10.38 3.25 10.31 3.43 10.31L10.31 10.31L10.31 3.43C10.31 3.25 10.38 3.08 10.51 2.95C10.64 2.82 10.81 2.75 11 2.75C11.18 2.75 11.35 2.82 11.48 2.95C11.61 3.08 11.68 3.25 11.68 3.43L11.68 10.31L18.56 10.31C18.74 10.31 18.91 10.38 19.04 10.51C19.17 10.64 19.25 10.81 19.25 11Z" fill="#FFFFFF" fill-opacity="1.000000" fill-rule="nonzero"/>
	</g>
</svg>
