<svg width="30.000000" height="30.000000" viewBox="0 0 30 30" fill="none" xmlns="http://www.w3.org/2000/svg" xmlns:xlink="http://www.w3.org/1999/xlink">
	<desc>
			Created with Pixso.
	</desc>
	<defs>
		<clipPath id="clip1_180">
			<rect id="Check" width="22.000000" height="22.000000" transform="translate(4.000000 4.000000)" fill="white" fill-opacity="0"/>
		</clipPath>
	</defs>
	<rect id="Rectangle 3" rx="5.000000" width="30.000000" height="30.000000" fill="#15101C" fill-opacity="1.000000"/>
	<rect id="Check" width="22.000000" height="22.000000" transform="translate(4.000000 4.000000)" fill="#FFFFFF" fill-opacity="0"/>
	<g clip-path="url(#clip1_180)">
		<path id="Vector" d="M23.73 10.67L12.73 21.67C12.67 21.73 12.59 21.78 12.51 21.82C12.42 21.85 12.34 21.87 12.25 21.87C12.15 21.87 12.07 21.85 11.98 21.82C11.9 21.78 11.82 21.73 11.76 21.67L6.95 16.86C6.82 16.73 6.74 16.55 6.74 16.37C6.74 16.19 6.82 16.01 6.95 15.88C7.08 15.75 7.25 15.68 7.43 15.68C7.62 15.68 7.79 15.75 7.92 15.88L12.25 20.21L22.76 9.7C22.89 9.57 23.06 9.49 23.25 9.49C23.43 9.49 23.6 9.57 23.73 9.7C23.86 9.83 23.93 10 23.93 10.18C23.93 10.36 23.86 10.54 23.73 10.67Z" fill="#9E78CF" fill-opacity="1.000000" fill-rule="nonzero"/>
	</g>
</svg>
