<svg width="30.000000" height="30.000000" viewBox="0 0 30 30" fill="none" xmlns="http://www.w3.org/2000/svg" xmlns:xlink="http://www.w3.org/1999/xlink">
	<desc>
			Created with Pixso.
	</desc>
	<defs>
		<clipPath id="clip1_197">
			<rect id="TrashSimple" width="22.000000" height="22.000000" transform="translate(4.000000 4.000000)" fill="white" fill-opacity="0"/>
		</clipPath>
	</defs>
	<rect id="Rectangle 3" rx="5.000000" width="30.000000" height="30.000000" fill="#15101C" fill-opacity="1.000000"/>
	<rect id="TrashSimple" width="22.000000" height="22.000000" transform="translate(4.000000 4.000000)" fill="#FFFFFF" fill-opacity="0"/>
	<g clip-path="url(#clip1_197)">
		<path id="Vector" d="M22.56 8.12L7.43 8.12C7.25 8.12 7.08 8.19 6.95 8.32C6.82 8.45 6.75 8.63 6.75 8.81C6.75 8.99 6.82 9.16 6.95 9.29C7.08 9.42 7.25 9.5 7.43 9.5L8.12 9.5L8.12 21.87C8.12 22.23 8.26 22.58 8.52 22.84C8.78 23.1 9.13 23.25 9.5 23.25L20.5 23.25C20.86 23.25 21.21 23.1 21.47 22.84C21.73 22.58 21.87 22.23 21.87 21.87L21.87 9.5L22.56 9.5C22.74 9.5 22.91 9.42 23.04 9.29C23.17 9.16 23.25 8.99 23.25 8.81C23.25 8.63 23.17 8.45 23.04 8.32C22.91 8.19 22.74 8.12 22.56 8.12ZM20.5 21.87L9.5 21.87L9.5 9.5L20.5 9.5L20.5 21.87ZM10.87 6.06C10.87 5.88 10.94 5.7 11.07 5.57C11.2 5.44 11.38 5.37 11.56 5.37L18.43 5.37C18.61 5.37 18.79 5.44 18.92 5.57C19.05 5.7 19.12 5.88 19.12 6.06C19.12 6.24 19.05 6.41 18.92 6.54C18.79 6.67 18.61 6.75 18.43 6.75L11.56 6.75C11.38 6.75 11.2 6.67 11.07 6.54C10.94 6.41 10.87 6.24 10.87 6.06Z" fill="#9E78CF" fill-opacity="1.000000" fill-rule="nonzero"/>
	</g>
</svg>
